# Blender v3.1.2 OBJ File: ''
# www.blender.org

mtllib res/Combine1.mtl

v -1.000000 -1.000000 +2.000000 # p 1
v +1.000000 -1.000000 +2.000000 # p 2
v +1.000000 +1.000000 +2.000000 # p 3

v -1.000000 -1.000000 +4.000000 # p 4
v +1.000000 -1.000000 +4.000000 # p 5
v +1.000000 +1.000000 +4.000000 # p 6

vt 0.000000 0.000000 # t 1
vt 1.000000 0.000000 # t 2
vt 1.000000 1.000000 # t 3

vn +0.000000 +0.000000 +1.000000 # n 1

g CubeGreen_Cube.001_Material.002
usemtl Material.002
s off
f 1/1/1 2/2/1 3/3/1

g CubeRed_Cube.002_Material.001
usemtl Material.001
s off
f 4/1/1 5/2/1 6/3/1