# Blender v3.1.2 OBJ File: ''
# www.blender.org
mtllib res/Crate-01-01.mtl
o Crate-01
v 0.025000 -0.000000 0.142300
v -0.025000 0.000000 -0.142300
v 0.025000 0.000000 -0.142300
v -0.025000 0.002500 -0.142300
v 0.025000 0.002500 0.142300
v 0.025000 0.002500 -0.142300
v -0.025000 0.002500 0.142300
v -0.025000 -0.000000 0.142300
v 0.250000 0.002500 -0.012500
v -0.250000 0.002500 -0.062500
v 0.250000 0.002500 -0.062500
v -0.250000 0.005000 -0.062500
v 0.250000 0.005000 -0.012500
v 0.250000 0.005000 -0.062500
v -0.250000 0.005000 -0.012500
v -0.250000 0.002500 -0.012500
v 0.250000 0.002500 0.062500
v -0.250000 0.002500 0.012500
v 0.250000 0.002500 0.012500
v -0.250000 0.005000 0.012500
v 0.250000 0.005000 0.062500
v 0.250000 0.005000 0.012500
v -0.250000 0.005000 0.062500
v -0.250000 0.002500 0.062500
v 0.250000 0.002500 -0.087500
v -0.250000 0.002500 -0.137500
v 0.250000 0.002500 -0.137500
v -0.250000 0.005000 -0.137500
v 0.250000 0.005000 -0.087500
v 0.250000 0.005000 -0.137500
v -0.250000 0.005000 -0.087500
v -0.250000 0.002500 -0.087500
v 0.250000 0.002500 0.137500
v -0.250000 0.002500 0.087500
v 0.250000 0.002500 0.087500
v -0.250000 0.005000 0.087500
v 0.250000 0.005000 0.137500
v 0.250000 0.005000 0.087500
v -0.250000 0.005000 0.137500
v -0.250000 0.002500 0.137500
v -0.175000 -0.000000 0.142300
v -0.225000 0.000000 -0.142300
v -0.175000 0.000000 -0.142300
v -0.225000 0.002500 -0.142300
v -0.175000 0.002500 0.142300
v -0.175000 0.002500 -0.142300
v -0.225000 0.002500 0.142300
v -0.225000 -0.000000 0.142300
v 0.225000 -0.000000 0.142300
v 0.175000 0.000000 -0.142300
v 0.225000 0.000000 -0.142300
v 0.175000 0.002500 -0.142300
v 0.225000 0.002500 0.142300
v 0.225000 0.002500 -0.142300
v 0.175000 0.002500 0.142300
v 0.175000 -0.000000 0.142300
v -0.249000 0.007500 0.140000
v -0.251000 0.007500 -0.140000
v -0.249000 0.007500 -0.140000
v -0.251000 0.052500 -0.140000
v -0.249000 0.052500 0.140000
v -0.249000 0.052500 -0.140000
v -0.251000 0.052500 0.140000
v -0.251000 0.007500 0.140000
v 0.251000 0.007500 0.140000
v 0.249000 0.007500 -0.140000
v 0.251000 0.007500 -0.140000
v 0.249000 0.052500 -0.140000
v 0.251000 0.052500 0.140000
v 0.251000 0.052500 -0.140000
v 0.249000 0.052500 0.140000
v 0.249000 0.007500 0.140000
v 0.245000 0.007500 -0.144000
v -0.245000 0.007500 -0.146000
v 0.245000 0.007500 -0.146000
v -0.245000 0.052500 -0.146000
v 0.245000 0.052500 -0.144000
v 0.245000 0.052500 -0.146000
v -0.245000 0.052500 -0.144000
v -0.245000 0.007500 -0.144000
v 0.245000 0.007500 0.146000
v -0.245000 0.007500 0.144000
v 0.245000 0.007500 0.144000
v -0.245000 0.052500 0.144000
v 0.245000 0.052500 0.146000
v 0.245000 0.052500 0.144000
v -0.245000 0.052500 0.146000
v -0.245000 0.007500 0.146000
v 0.251000 0.060000 0.140000
v 0.249000 0.060000 -0.140000
v 0.251000 0.060000 -0.140000
v 0.249000 0.105000 -0.140000
v 0.251000 0.105000 0.140000
v 0.251000 0.105000 -0.140000
v 0.249000 0.105000 0.140000
v 0.249000 0.060000 0.140000
v 0.245000 0.060000 -0.144000
v -0.245000 0.060000 -0.146000
v 0.245000 0.060000 -0.146000
v -0.245000 0.105000 -0.146000
v 0.245000 0.105000 -0.144000
v 0.245000 0.105000 -0.146000
v -0.245000 0.105000 -0.144000
v -0.245000 0.060000 -0.144000
v -0.249000 0.060000 0.140000
v -0.251000 0.060000 -0.140000
v -0.249000 0.060000 -0.140000
v -0.251000 0.105000 -0.140000
v -0.249000 0.105000 0.140000
v -0.249000 0.105000 -0.140000
v -0.251000 0.105000 0.140000
v -0.251000 0.060000 0.140000
v 0.245000 0.060000 0.146000
v -0.245000 0.060000 0.144000
v 0.245000 0.060000 0.144000
v -0.245000 0.105000 0.144000
v 0.245000 0.105000 0.146000
v 0.245000 0.105000 0.144000
v -0.245000 0.105000 0.146000
v -0.245000 0.060000 0.146000
v 0.219000 0.005000 0.144000
v 0.249000 0.005000 0.114000
v 0.249000 0.005000 0.144000
v 0.219000 0.180000 0.144000
v 0.249000 0.180000 0.144000
v 0.249000 0.180000 0.114000
v -0.249000 0.005000 0.144000
v -0.249000 0.005000 0.114000
v -0.219000 0.005000 0.144000
v -0.249000 0.180000 0.144000
v -0.219000 0.180000 0.144000
v -0.249000 0.180000 0.114000
v 0.219000 0.005000 -0.144000
v 0.249000 0.005000 -0.144000
v 0.249000 0.005000 -0.114000
v 0.249000 0.180000 -0.114000
v 0.249000 0.180000 -0.144000
v 0.219000 0.180000 -0.144000
v -0.249000 0.005000 -0.114000
v -0.249000 0.005000 -0.144000
v -0.219000 0.005000 -0.144000
v -0.249000 0.180000 -0.114000
v -0.219000 0.180000 -0.144000
v -0.249000 0.180000 -0.144000
v 0.251000 0.150000 0.145000
v 0.249000 0.150000 -0.145000
v 0.251000 0.150000 -0.145000
v 0.249000 0.180000 -0.145000
v 0.251000 0.180000 0.145000
v 0.251000 0.180000 -0.145000
v 0.249000 0.180000 0.145000
v 0.249000 0.150000 0.145000
v -0.249000 0.150000 0.145000
v -0.251000 0.150000 -0.145000
v -0.249000 0.150000 -0.145000
v -0.251000 0.180000 -0.145000
v -0.249000 0.180000 0.145000
v -0.249000 0.180000 -0.145000
v -0.251000 0.180000 0.145000
v -0.251000 0.150000 0.145000
v -0.212500 0.180000 0.145000
v -0.247500 0.180000 -0.145000
v -0.212500 0.180000 -0.145000
v -0.247500 0.182000 -0.145000
v -0.212500 0.182000 0.145000
v -0.212500 0.182000 -0.145000
v -0.247500 0.182000 0.145000
v -0.247500 0.180000 0.145000
v 0.247500 0.180000 0.145000
v 0.212500 0.180000 -0.145000
v 0.247500 0.180000 -0.145000
v 0.212500 0.182000 -0.145000
v 0.247500 0.182000 0.145000
v 0.247500 0.182000 -0.145000
v 0.212500 0.182000 0.145000
v 0.212500 0.180000 0.145000
vt 0.465838 0.801863
vt 0.414079 0.507246
vt 0.465838 0.507246
vt 0.605590 0.507246
vt 0.553830 0.801863
vt 0.553830 0.507246
vt 0.600338 0.853623
vt 0.597750 0.801863
vt 0.600338 0.801863
vt 0.106108 0.812215
vt 0.103520 0.517598
vt 0.106108 0.517598
vt 0.605590 0.853623
vt 0.603002 0.801863
vt 0.605590 0.801863
vt 0.002588 0.517598
vt 0.005176 0.812215
vt 0.002588 0.812215
vt 0.310559 0.517598
vt 0.362319 0.000000
vt 0.362319 0.517598
vt 0.414079 0.517598
vt 0.362319 0.000000
vt 0.414079 0.000000
vt 0.980849 0.817805
vt 0.978261 0.300207
vt 0.980849 0.300207
vt 0.485134 0.853623
vt 0.482546 0.801863
vt 0.485134 0.801863
vt 0.978261 0.817805
vt 0.975673 0.300207
vt 0.978261 0.300207
vt 0.644410 0.801863
vt 0.646998 0.853623
vt 0.644410 0.853623
vt 0.258799 0.517598
vt 0.310559 0.000000
vt 0.310559 0.517598
vt 0.051760 0.517598
vt 0.000000 0.000000
vt 0.051760 0.000000
vt 0.986025 0.817805
vt 0.983437 0.300207
vt 0.986025 0.300207
vt 0.644410 0.853623
vt 0.641822 0.801863
vt 0.644410 0.801863
vt 0.991201 0.817805
vt 0.988613 0.300207
vt 0.991201 0.300207
vt 0.479958 0.801863
vt 0.482546 0.853623
vt 0.479958 0.853623
vt 0.155279 0.517598
vt 0.207039 0.000000
vt 0.207039 0.517598
vt 0.155279 0.517598
vt 0.103520 0.000000
vt 0.155279 0.000000
vt 0.983437 0.817805
vt 0.980849 0.300207
vt 0.983437 0.300207
vt 0.487722 0.853623
vt 0.485134 0.801863
vt 0.487722 0.801863
vt 0.988613 0.817805
vt 0.986025 0.300207
vt 0.988613 0.300207
vt 0.490463 0.801863
vt 0.493051 0.853623
vt 0.490463 0.853623
vt 0.051760 0.517598
vt 0.103520 0.000000
vt 0.103520 0.517598
vt 0.258799 0.517598
vt 0.207039 0.000000
vt 0.258799 0.000000
vt 0.975673 0.817805
vt 0.973085 0.300207
vt 0.975673 0.300207
vt 0.495638 0.853623
vt 0.493051 0.801863
vt 0.495638 0.801863
vt 0.993789 0.817805
vt 0.991201 0.300207
vt 0.993789 0.300207
vt 0.487875 0.801863
vt 0.490463 0.853623
vt 0.487875 0.853623
vt 0.517598 0.801863
vt 0.465839 0.507246
vt 0.517598 0.507246
vt 0.698758 0.507246
vt 0.646998 0.801863
vt 0.646998 0.507246
vt 0.603002 0.853623
vt 0.600414 0.801863
vt 0.603002 0.801863
vt 0.644410 0.507246
vt 0.755693 0.853623
vt 0.753106 0.801863
vt 0.755693 0.801863
vt 0.000000 0.517598
vt 0.002588 0.812215
vt 0.000000 0.812215
vt 0.802277 0.801863
vt 0.750518 0.507246
vt 0.802277 0.507246
vt 0.750518 0.507246
vt 0.698758 0.801863
vt 0.698758 0.507246
vt 0.753106 0.853623
vt 0.750518 0.801863
vt 0.753106 0.801863
vt 0.108696 0.812215
vt 0.106108 0.517598
vt 0.108696 0.517598
vt 0.693505 0.853623
vt 0.690917 0.801863
vt 0.693505 0.801863
vt 0.641822 0.507246
vt 0.644410 0.801863
vt 0.641822 0.801863
vt 0.951346 0.289855
vt 0.949275 0.000000
vt 0.951346 0.000000
vt 0.362319 0.517598
vt 0.360248 0.807453
vt 0.360248 0.517598
vt 0.715321 0.801863
vt 0.713250 0.848447
vt 0.713250 0.801863
vt 0.408903 0.807453
vt 0.362319 0.517598
vt 0.408903 0.517598
vt 0.713250 0.801863
vt 0.711180 0.848447
vt 0.711180 0.801863
vt 0.258799 0.517598
vt 0.305383 0.807453
vt 0.258799 0.807453
vt 0.354037 0.807453
vt 0.351967 0.517598
vt 0.354037 0.517598
vt 0.356108 0.517598
vt 0.354037 0.807453
vt 0.354037 0.517598
vt 0.704969 0.801863
vt 0.702899 0.848447
vt 0.702899 0.801863
vt 0.248447 0.807453
vt 0.201863 0.517598
vt 0.248447 0.517598
vt 0.709110 0.801863
vt 0.707039 0.848447
vt 0.707039 0.801863
vt 0.305383 0.517598
vt 0.351967 0.807453
vt 0.305383 0.807453
vt 0.964803 0.988613
vt 0.966874 0.481366
vt 0.966874 0.988613
vt 0.973085 0.988613
vt 0.971015 0.481366
vt 0.973085 0.481366
vt 0.460662 0.507246
vt 0.414079 0.000000
vt 0.460662 0.000000
vt 0.698758 0.848447
vt 0.700828 0.801863
vt 0.700828 0.848447
vt 0.507246 0.507246
vt 0.460662 0.000000
vt 0.507246 0.000000
vt 0.757764 0.801863
vt 0.755694 0.848447
vt 0.755694 0.801863
vt 0.968944 0.988613
vt 0.971015 0.481366
vt 0.971015 0.988613
vt 0.968944 0.988613
vt 0.966874 0.481366
vt 0.968944 0.481366
vt 0.600414 0.507246
vt 0.553830 0.000000
vt 0.600414 0.000000
vt 0.748447 0.848447
vt 0.750518 0.801863
vt 0.750518 0.848447
vt 0.553830 0.507246
vt 0.507246 0.000000
vt 0.553830 0.000000
vt 0.702899 0.801863
vt 0.700828 0.848447
vt 0.700828 0.801863
vt 0.949275 0.289855
vt 0.947205 0.000000
vt 0.949275 0.000000
vt 0.360248 0.517598
vt 0.358178 0.807453
vt 0.358178 0.517598
vt 0.742236 0.801863
vt 0.740166 0.848447
vt 0.740166 0.801863
vt 0.098344 0.807453
vt 0.051760 0.517598
vt 0.098344 0.517598
vt 0.711180 0.801863
vt 0.709110 0.848447
vt 0.709110 0.801863
vt 0.005176 0.517598
vt 0.051760 0.807453
vt 0.005176 0.807453
vt 0.997930 0.807453
vt 1.000000 0.300207
vt 1.000000 0.807453
vt 0.964803 0.988613
vt 0.962733 0.481366
vt 0.964803 0.481366
vt 0.740166 0.507246
vt 0.693582 0.000000
vt 0.740166 0.000000
vt 0.746377 0.848447
vt 0.748447 0.801863
vt 0.748447 0.848447
vt 0.693582 0.507246
vt 0.646998 0.000000
vt 0.693582 0.000000
vt 0.695576 0.801863
vt 0.693505 0.848447
vt 0.693505 0.801863
vt 0.358178 0.807453
vt 0.356108 0.517598
vt 0.358178 0.517598
vt 0.413043 0.517598
vt 0.410973 0.807453
vt 0.410973 0.517598
vt 0.707039 0.801863
vt 0.704969 0.848447
vt 0.704969 0.801863
vt 0.155279 0.807453
vt 0.108696 0.517598
vt 0.155279 0.517598
vt 0.746377 0.801863
vt 0.744306 0.848447
vt 0.744306 0.801863
vt 0.155279 0.517598
vt 0.201863 0.807453
vt 0.155279 0.807453
vt 0.995859 0.807453
vt 0.997930 0.300207
vt 0.997930 0.807453
vt 0.995859 0.807453
vt 0.993789 0.300207
vt 0.995859 0.300207
vt 0.786749 0.507246
vt 0.740166 0.000000
vt 0.786749 0.000000
vt 0.742236 0.848447
vt 0.744306 0.801863
vt 0.744306 0.848447
vt 0.646998 0.507246
vt 0.600414 0.000000
vt 0.646998 0.000000
vt 0.698758 0.801863
vt 0.696687 0.848447
vt 0.696687 0.801863
vt 0.575790 0.801863
vt 0.575790 0.845783
vt 0.553830 0.823823
vt 0.457998 0.845783
vt 0.436038 0.823823
vt 0.457998 0.801863
vt 0.900621 0.869565
vt 0.931677 0.688406
vt 0.931677 0.869565
vt 0.947205 0.000000
vt 0.916149 0.181159
vt 0.916149 0.000000
vt 0.786749 0.481366
vt 0.817805 0.300207
vt 0.817805 0.481366
vt 0.414079 0.823823
vt 0.436038 0.801863
vt 0.436038 0.845783
vt 0.646998 0.823823
vt 0.668958 0.801863
vt 0.668958 0.845783
vt 0.879917 0.481366
vt 0.910973 0.300207
vt 0.910973 0.481366
vt 0.885093 0.181159
vt 0.916149 0.000000
vt 0.916149 0.181159
vt 0.942029 0.481366
vt 0.973085 0.300207
vt 0.973085 0.481366
vt 0.597750 0.845783
vt 0.575790 0.823823
vt 0.597750 0.801863
vt 0.517598 0.845783
vt 0.495638 0.823823
vt 0.517598 0.801863
vt 0.900621 0.507246
vt 0.931677 0.688406
vt 0.900621 0.688406
vt 0.962733 0.507246
vt 0.931677 0.688406
vt 0.931677 0.507246
vt 0.848861 0.481366
vt 0.879917 0.300207
vt 0.879917 0.481366
vt 0.479958 0.845783
vt 0.457998 0.823823
vt 0.479958 0.801863
vt 0.690917 0.801863
vt 0.690917 0.845783
vt 0.668958 0.823823
vt 0.817805 0.481366
vt 0.848861 0.300207
vt 0.848861 0.481366
vt 0.910973 0.481366
vt 0.942029 0.300207
vt 0.942029 0.481366
vt 0.931677 0.869565
vt 0.962733 0.688406
vt 0.962733 0.869565
vt 0.410973 0.817805
vt 0.408903 0.517598
vt 0.410973 0.517598
vt 0.256729 0.517598
vt 0.254658 0.817805
vt 0.254658 0.517598
vt 0.738095 0.801863
vt 0.736025 0.832919
vt 0.736025 0.801863
vt 0.900621 0.807453
vt 0.869565 0.507246
vt 0.900621 0.507246
vt 0.733955 0.801863
vt 0.731884 0.832919
vt 0.731884 0.801863
vt 0.854037 0.000000
vt 0.885093 0.300207
vt 0.854037 0.300207
vt 0.254658 0.817805
vt 0.252588 0.517598
vt 0.254658 0.517598
vt 0.252588 0.517598
vt 0.250518 0.817805
vt 0.250518 0.517598
vt 0.740166 0.801863
vt 0.738095 0.832919
vt 0.738095 0.801863
vt 0.854037 0.300207
vt 0.822981 0.000000
vt 0.854037 0.000000
vt 0.736025 0.801863
vt 0.733955 0.832919
vt 0.733955 0.801863
vt 0.838509 0.507246
vt 0.869565 0.807453
vt 0.838509 0.807453
vt 0.553830 0.807453
vt 0.517598 0.507246
vt 0.553830 0.507246
vt 0.641822 0.507246
vt 0.605590 0.807453
vt 0.605590 0.507246
vt 0.721532 0.838095
vt 0.719461 0.801863
vt 0.721532 0.801863
vt 0.250518 0.817805
vt 0.248447 0.517598
vt 0.250518 0.517598
vt 0.723602 0.838095
vt 0.721532 0.801863
vt 0.723602 0.801863
vt 0.256729 0.517598
vt 0.258799 0.817805
vt 0.256729 0.817805
vt 0.838509 0.807453
vt 0.802277 0.507246
vt 0.838509 0.507246
vt 0.822981 0.000000
vt 0.786750 0.300207
vt 0.786750 0.000000
vt 0.719461 0.838095
vt 0.717391 0.801863
vt 0.719461 0.801863
vt 0.103520 0.817805
vt 0.101449 0.517598
vt 0.103520 0.517598
vt 0.717391 0.838095
vt 0.715321 0.801863
vt 0.717391 0.801863
vt 0.099379 0.517598
vt 0.101449 0.817805
vt 0.099379 0.817805
vt 0.414079 0.801863
vt 0.605590 0.801863
vt 0.597750 0.853623
vt 0.103520 0.812215
vt 0.603002 0.853623
vt 0.005176 0.517598
vt 0.310559 0.000000
vt 0.362319 0.517598
vt 0.978261 0.817805
vt 0.482546 0.853623
vt 0.975673 0.817805
vt 0.646998 0.801863
vt 0.258799 0.000000
vt 0.000000 0.517598
vt 0.983437 0.817805
vt 0.641822 0.853623
vt 0.988613 0.817805
vt 0.482546 0.801863
vt 0.155279 0.000000
vt 0.103520 0.517598
vt 0.980849 0.817805
vt 0.485134 0.853623
vt 0.986025 0.817805
vt 0.493051 0.801863
vt 0.051760 0.000000
vt 0.207039 0.517598
vt 0.973085 0.817805
vt 0.493051 0.853623
vt 0.991201 0.817805
vt 0.490463 0.801863
vt 0.465838 0.801863
vt 0.698758 0.801863
vt 0.600414 0.853623
vt 0.644410 0.801863
vt 0.753106 0.853623
vt 0.002588 0.517598
vt 0.750517 0.801863
vt 0.750518 0.801863
vt 0.750518 0.853623
vt 0.106108 0.812215
vt 0.690917 0.853623
vt 0.644410 0.507246
vt 0.949275 0.289855
vt 0.362319 0.807453
vt 0.715321 0.848447
vt 0.362319 0.807453
vt 0.713250 0.848447
vt 0.305383 0.517598
vt 0.356108 0.807453
vt 0.704969 0.848447
vt 0.201863 0.807453
vt 0.709110 0.848447
vt 0.964803 0.481366
vt 0.971015 0.988613
vt 0.414079 0.507246
vt 0.698758 0.801863
vt 0.460662 0.507246
vt 0.757764 0.848447
vt 0.968944 0.481366
vt 0.966874 0.988613
vt 0.553830 0.507246
vt 0.748447 0.801863
vt 0.507246 0.507246
vt 0.702899 0.848447
vt 0.947205 0.289855
vt 0.360248 0.807453
vt 0.742236 0.848447
vt 0.051760 0.807453
vt 0.711180 0.848447
vt 0.051760 0.517598
vt 0.997930 0.300207
vt 0.962733 0.988613
vt 0.693582 0.507246
vt 0.746377 0.801863
vt 0.646998 0.507246
vt 0.695576 0.848447
vt 0.356108 0.807453
vt 0.413043 0.807453
vt 0.707039 0.848447
vt 0.108696 0.807453
vt 0.746377 0.848447
vt 0.201863 0.517598
vt 0.995859 0.300207
vt 0.993789 0.807453
vt 0.740166 0.507246
vt 0.742236 0.801863
vt 0.600414 0.507246
vt 0.698758 0.848447
vt 0.900621 0.688406
vt 0.947205 0.181159
vt 0.786749 0.300207
vt 0.879917 0.300207
vt 0.885093 0.000000
vt 0.942029 0.300207
vt 0.931677 0.507246
vt 0.962733 0.688406
vt 0.848861 0.300207
vt 0.817805 0.300207
vt 0.910973 0.300207
vt 0.931677 0.688406
vt 0.408903 0.817805
vt 0.256729 0.817805
vt 0.738095 0.832919
vt 0.869565 0.807453
vt 0.733955 0.832919
vt 0.885093 0.000000
vt 0.252588 0.817805
vt 0.252588 0.817805
vt 0.740166 0.832919
vt 0.822981 0.300207
vt 0.736025 0.832919
vt 0.869565 0.507246
vt 0.517598 0.807453
vt 0.641822 0.807453
vt 0.719461 0.838095
vt 0.248447 0.817805
vt 0.721532 0.838095
vt 0.258799 0.517598
vt 0.802277 0.807453
vt 0.822981 0.300207
vt 0.717391 0.838095
vt 0.101449 0.817805
vt 0.715321 0.838095
vt 0.101449 0.517598
vn 0.0000 -1.0000 -0.0000
vn 0.0000 1.0000 0.0000
vn 0.0000 0.0000 1.0000
vn 1.0000 0.0000 0.0000
vn 0.0000 0.0000 -1.0000
vn -1.0000 0.0000 0.0000
vn -0.7071 0.0000 -0.7071
vn 0.7071 0.0000 -0.7071
vn -0.7071 -0.0000 0.7071
vn 0.7071 -0.0000 0.7071
usemtl Crate
s 1
f 1/1/1 2/2/1 3/3/1
f 4/4/2 5/5/2 6/6/2
f 7/7/3 1/8/3 5/9/3
f 5/10/4 3/11/4 6/12/4
f 6/13/5 2/14/5 4/15/5
f 4/16/6 8/17/6 7/18/6
f 9/19/1 10/20/1 11/21/1
f 12/22/2 13/23/2 14/24/2
f 15/25/3 9/26/3 13/27/3
f 13/28/4 11/29/4 14/30/4
f 14/31/5 10/32/5 12/33/5
f 12/34/6 16/35/6 15/36/6
f 17/37/1 18/38/1 19/39/1
f 20/40/2 21/41/2 22/42/2
f 23/43/3 17/44/3 21/45/3
f 21/46/4 19/47/4 22/48/4
f 22/49/5 18/50/5 20/51/5
f 20/52/6 24/53/6 23/54/6
f 25/55/1 26/56/1 27/57/1
f 28/58/2 29/59/2 30/60/2
f 31/61/3 25/62/3 29/63/3
f 29/64/4 27/65/4 30/66/4
f 30/67/5 26/68/5 28/69/5
f 28/70/6 32/71/6 31/72/6
f 33/73/1 34/74/1 35/75/1
f 36/76/2 37/77/2 38/78/2
f 39/79/3 33/80/3 37/81/3
f 37/82/4 35/83/4 38/84/4
f 38/85/5 34/86/5 36/87/5
f 36/88/6 40/89/6 39/90/6
f 41/91/1 42/92/1 43/93/1
f 44/94/2 45/95/2 46/96/2
f 47/97/3 41/98/3 45/99/3
f 45/95/4 43/100/4 46/96/4
f 46/101/5 42/102/5 44/103/5
f 44/104/6 48/105/6 47/106/6
f 49/107/1 50/108/1 51/109/1
f 52/110/2 53/111/2 54/112/2
f 55/113/3 49/114/3 53/115/3
f 53/116/4 51/117/4 54/118/4
f 54/119/5 50/120/5 52/121/5
f 52/122/6 56/123/6 55/124/6
f 57/125/1 58/126/1 59/127/1
f 60/128/2 61/129/2 62/130/2
f 63/131/3 57/132/3 61/133/3
f 61/134/4 59/135/4 62/136/4
f 62/137/5 58/138/5 60/139/5
f 60/140/6 64/141/6 63/142/6
f 65/143/1 66/144/1 67/145/1
f 68/146/2 69/147/2 70/148/2
f 71/149/3 65/150/3 69/151/3
f 69/152/4 67/153/4 70/154/4
f 70/155/5 66/156/5 68/157/5
f 68/158/6 72/159/6 71/160/6
f 73/161/1 74/162/1 75/163/1
f 76/164/2 77/165/2 78/166/2
f 79/167/3 73/168/3 77/169/3
f 77/170/4 75/171/4 78/172/4
f 78/173/5 74/174/5 76/175/5
f 76/176/6 80/177/6 79/178/6
f 81/179/1 82/180/1 83/181/1
f 84/182/2 85/183/2 86/184/2
f 87/185/3 81/186/3 85/187/3
f 85/188/4 83/189/4 86/190/4
f 86/191/5 82/192/5 84/193/5
f 84/194/6 88/195/6 87/196/6
f 89/197/1 90/198/1 91/199/1
f 92/200/2 93/201/2 94/202/2
f 95/203/3 89/204/3 93/205/3
f 93/206/4 91/207/4 94/208/4
f 94/209/5 90/210/5 92/211/5
f 92/212/6 96/213/6 95/214/6
f 97/215/1 98/216/1 99/217/1
f 100/218/2 101/219/2 102/220/2
f 103/221/3 97/222/3 101/223/3
f 101/224/4 99/225/4 102/226/4
f 102/227/5 98/228/5 100/229/5
f 100/230/6 104/231/6 103/232/6
f 105/233/1 106/234/1 107/235/1
f 108/236/2 109/237/2 110/238/2
f 111/239/3 105/240/3 109/241/3
f 109/242/4 107/243/4 110/244/4
f 110/245/5 106/246/5 108/247/5
f 108/248/6 112/249/6 111/250/6
f 113/251/1 114/252/1 115/253/1
f 116/254/2 117/255/2 118/256/2
f 119/257/3 113/258/3 117/259/3
f 117/260/4 115/261/4 118/262/4
f 118/263/5 114/264/5 116/265/5
f 116/266/6 120/267/6 119/268/6
f 121/269/1 122/270/1 123/271/1
f 124/272/2 125/273/2 126/274/2
f 123/275/3 124/276/3 121/277/3
f 122/278/4 125/279/4 123/280/4
f 121/281/7 126/282/7 122/283/7
f 127/284/1 128/285/1 129/286/1
f 130/287/2 131/288/2 132/289/2
f 129/290/3 130/291/3 127/292/3
f 128/293/8 131/294/8 129/295/8
f 127/296/6 132/297/6 128/298/6
f 133/299/1 134/300/1 135/301/1
f 136/302/2 137/303/2 138/304/2
f 136/305/9 133/306/9 135/307/9
f 134/308/4 136/309/4 135/310/4
f 133/311/5 137/312/5 134/313/5
f 139/314/1 140/315/1 141/316/1
f 142/317/2 143/318/2 144/319/2
f 141/320/10 142/321/10 139/322/10
f 140/323/5 143/324/5 141/325/5
f 139/326/6 144/327/6 140/328/6
f 145/329/1 146/330/1 147/331/1
f 148/332/2 149/333/2 150/334/2
f 151/335/3 145/336/3 149/337/3
f 149/338/4 147/339/4 150/340/4
f 150/341/5 146/342/5 148/343/5
f 148/344/6 152/345/6 151/346/6
f 153/347/1 154/348/1 155/349/1
f 156/350/2 157/351/2 158/352/2
f 159/353/3 153/354/3 157/355/3
f 157/356/4 155/357/4 158/358/4
f 158/359/5 154/360/5 156/361/5
f 156/362/6 160/363/6 159/364/6
f 161/365/1 162/366/1 163/367/1
f 164/368/2 165/369/2 166/370/2
f 167/371/3 161/372/3 165/373/3
f 165/374/4 163/375/4 166/376/4
f 166/377/5 162/378/5 164/379/5
f 164/380/6 168/381/6 167/382/6
f 169/383/1 170/384/1 171/385/1
f 172/386/2 173/387/2 174/388/2
f 175/389/3 169/390/3 173/391/3
f 173/392/4 171/393/4 174/394/4
f 174/395/5 170/396/5 172/397/5
f 172/398/6 176/399/6 175/400/6
f 1/1/1 8/401/1 2/2/1
f 4/4/2 7/402/2 5/5/2
f 7/7/3 8/403/3 1/8/3
f 5/10/4 1/404/4 3/11/4
f 6/13/5 3/405/5 2/14/5
f 4/16/6 2/406/6 8/17/6
f 9/19/1 16/407/1 10/20/1
f 12/22/2 15/408/2 13/23/2
f 15/25/3 16/409/3 9/26/3
f 13/28/4 9/410/4 11/29/4
f 14/31/5 11/411/5 10/32/5
f 12/34/6 10/412/6 16/35/6
f 17/37/1 24/413/1 18/38/1
f 20/40/2 23/414/2 21/41/2
f 23/43/3 24/415/3 17/44/3
f 21/46/4 17/416/4 19/47/4
f 22/49/5 19/417/5 18/50/5
f 20/52/6 18/418/6 24/53/6
f 25/55/1 32/419/1 26/56/1
f 28/58/2 31/420/2 29/59/2
f 31/61/3 32/421/3 25/62/3
f 29/64/4 25/422/4 27/65/4
f 30/67/5 27/423/5 26/68/5
f 28/70/6 26/424/6 32/71/6
f 33/73/1 40/425/1 34/74/1
f 36/76/2 39/426/2 37/77/2
f 39/79/3 40/427/3 33/80/3
f 37/82/4 33/428/4 35/83/4
f 38/85/5 35/429/5 34/86/5
f 36/88/6 34/430/6 40/89/6
f 41/91/1 48/431/1 42/92/1
f 44/94/2 47/432/2 45/95/2
f 47/97/3 48/433/3 41/98/3
f 45/95/4 41/434/4 43/100/4
f 46/101/5 43/435/5 42/102/5
f 44/104/6 42/436/6 48/105/6
f 49/107/1 56/437/1 50/108/1
f 52/110/2 55/438/2 53/111/2
f 55/113/3 56/439/3 49/114/3
f 53/116/4 49/440/4 51/117/4
f 54/119/5 51/441/5 50/120/5
f 52/122/6 50/442/6 56/123/6
f 57/125/1 64/443/1 58/126/1
f 60/128/2 63/444/2 61/129/2
f 63/131/3 64/445/3 57/132/3
f 61/134/4 57/446/4 59/135/4
f 62/137/5 59/447/5 58/138/5
f 60/140/6 58/448/6 64/141/6
f 65/143/1 72/159/1 66/144/1
f 68/146/2 71/449/2 69/147/2
f 71/149/3 72/450/3 65/150/3
f 69/152/4 65/451/4 67/153/4
f 70/155/5 67/452/5 66/156/5
f 68/158/6 66/144/6 72/159/6
f 73/161/1 80/453/1 74/162/1
f 76/164/2 79/454/2 77/165/2
f 79/167/3 80/455/3 73/168/3
f 77/170/4 73/456/4 75/171/4
f 78/173/5 75/457/5 74/174/5
f 76/176/6 74/458/6 80/177/6
f 81/179/1 88/459/1 82/180/1
f 84/182/2 87/460/2 85/183/2
f 87/185/3 88/461/3 81/186/3
f 85/188/4 81/462/4 83/189/4
f 86/191/5 83/463/5 82/192/5
f 84/194/6 82/464/6 88/195/6
f 89/197/1 96/465/1 90/198/1
f 92/200/2 95/466/2 93/201/2
f 95/203/3 96/467/3 89/204/3
f 93/206/4 89/468/4 91/207/4
f 94/209/5 91/469/5 90/210/5
f 92/212/6 90/470/6 96/213/6
f 97/215/1 104/471/1 98/216/1
f 100/218/2 103/472/2 101/219/2
f 103/221/3 104/473/3 97/222/3
f 101/224/4 97/474/4 99/225/4
f 102/227/5 99/475/5 98/228/5
f 100/230/6 98/476/6 104/231/6
f 105/233/1 112/477/1 106/234/1
f 108/236/2 111/478/2 109/237/2
f 111/239/3 112/479/3 105/240/3
f 109/242/4 105/480/4 107/243/4
f 110/245/5 107/481/5 106/246/5
f 108/248/6 106/482/6 112/249/6
f 113/251/1 120/483/1 114/252/1
f 116/254/2 119/484/2 117/255/2
f 119/257/3 120/485/3 113/258/3
f 117/260/4 113/486/4 115/261/4
f 118/263/5 115/487/5 114/264/5
f 116/266/6 114/488/6 120/267/6
f 123/275/3 125/489/3 124/276/3
f 122/278/4 126/490/4 125/279/4
f 121/281/7 124/491/7 126/282/7
f 129/290/3 131/492/3 130/291/3
f 128/293/8 132/493/8 131/294/8
f 127/296/6 130/494/6 132/297/6
f 136/305/9 138/495/9 133/306/9
f 134/308/4 137/496/4 136/309/4
f 133/311/5 138/497/5 137/312/5
f 141/320/10 143/498/10 142/321/10
f 140/323/5 144/499/5 143/324/5
f 139/326/6 142/500/6 144/327/6
f 145/329/1 152/501/1 146/330/1
f 148/332/2 151/502/2 149/333/2
f 151/335/3 152/503/3 145/336/3
f 149/338/4 145/504/4 147/339/4
f 150/341/5 147/505/5 146/342/5
f 148/344/6 146/506/6 152/345/6
f 153/347/1 160/507/1 154/348/1
f 156/350/2 159/508/2 157/351/2
f 159/353/3 160/509/3 153/354/3
f 157/356/4 153/510/4 155/357/4
f 158/359/5 155/511/5 154/360/5
f 156/362/6 154/512/6 160/363/6
f 161/365/1 168/513/1 162/366/1
f 164/368/2 167/514/2 165/369/2
f 167/371/3 168/515/3 161/372/3
f 165/374/4 161/516/4 163/375/4
f 166/377/5 163/517/5 162/378/5
f 164/380/6 162/518/6 168/381/6
f 169/383/1 176/519/1 170/384/1
f 172/386/2 175/520/2 173/387/2
f 175/389/3 176/521/3 169/390/3
f 173/392/4 169/522/4 171/393/4
f 174/395/5 171/523/5 170/396/5
f 172/398/6 170/524/6 176/399/6
