# Blender 4.3.2
# www.blender.org
mtllib res/Materials/Pebble_Sphere.mtl
o Cube
v 2.000000 -1.000000 1.000000
v 2.000000 1.000000 1.000000
v 2.000000 -1.000000 -1.000000
v 2.000000 1.000000 -1.000000
v 4.000000 -1.000000 1.000000
v 4.000000 1.000000 1.000000
v 4.000000 -1.000000 -1.000000
v 4.000000 1.000000 -1.000000
vn -1.0000 -0.0000 -0.0000
vn -0.0000 -0.0000 -1.0000
vn 1.0000 -0.0000 -0.0000
vn -0.0000 -0.0000 1.0000
vn -0.0000 -1.0000 -0.0000
vn -0.0000 1.0000 -0.0000
vt 0.000000 1.000000
vt 1.000000 0.000000
vt 0.000000 0.000000
vt 1.000000 1.000000
s 0
g Cube_Material.001
usemtl Material.001
f 2/1/1 3/2/1 1/3/1
f 4/1/2 7/2/2 3/3/2
f 8/4/3 5/3/3 7/2/3
f 6/4/4 1/3/4 5/2/4
f 7/4/5 1/3/5 3/1/5
f 4/1/6 6/2/6 8/4/6
f 2/1/1 4/4/1 3/2/1
f 4/1/2 8/4/2 7/2/2
f 8/4/3 6/1/3 5/3/3
f 6/4/4 2/1/4 1/3/4
f 7/4/5 5/2/5 1/3/5
f 4/1/6 2/3/6 6/2/6
o Icosphere
v 0.000000 -1.000000 0.000000
v 0.723607 -0.447220 0.525725
v -0.276388 -0.447220 0.850649
v -0.894426 -0.447216 0.000000
v -0.276388 -0.447220 -0.850649
v 0.723607 -0.447220 -0.525725
v 0.276388 0.447220 0.850649
v -0.723607 0.447220 0.525725
v -0.723607 0.447220 -0.525725
v 0.276388 0.447220 -0.850649
v 0.894426 0.447216 0.000000
v 0.000000 1.000000 0.000000
v -0.162456 -0.850654 0.499995
v 0.425323 -0.850654 0.309011
v 0.262869 -0.525738 0.809012
v 0.850648 -0.525736 0.000000
v 0.425323 -0.850654 -0.309011
v -0.525730 -0.850652 0.000000
v -0.688189 -0.525736 0.499997
v -0.162456 -0.850654 -0.499995
v -0.688189 -0.525736 -0.499997
v 0.262869 -0.525738 -0.809012
v 0.951058 0.000000 0.309013
v 0.951058 0.000000 -0.309013
v 0.000000 0.000000 1.000000
v 0.587786 0.000000 0.809017
v -0.951058 0.000000 0.309013
v -0.587786 0.000000 0.809017
v -0.587786 0.000000 -0.809017
v -0.951058 0.000000 -0.309013
v 0.587786 0.000000 -0.809017
v 0.000000 0.000000 -1.000000
v 0.688189 0.525736 0.499997
v -0.262869 0.525738 0.809012
v -0.850648 0.525736 0.000000
v -0.262869 0.525738 -0.809012
v 0.688189 0.525736 -0.499997
v 0.162456 0.850654 0.499995
v 0.525730 0.850652 0.000000
v -0.425323 0.850654 0.309011
v -0.425323 0.850654 -0.309011
v 0.162456 0.850654 -0.499995
vn 0.1024 -0.9435 0.3151
vn 0.7002 -0.6617 0.2680
vn -0.2680 -0.9435 0.1947
vn -0.2680 -0.9435 -0.1947
vn 0.1024 -0.9435 -0.3151
vn 0.9050 -0.3304 0.2680
vn 0.0247 -0.3304 0.9435
vn -0.8897 -0.3304 0.3151
vn -0.5746 -0.3304 -0.7488
vn 0.5346 -0.3304 -0.7779
vn 0.8026 -0.1256 0.5831
vn -0.3066 -0.1256 0.9435
vn -0.9921 -0.1256 -0.0000
vn -0.3066 -0.1256 -0.9435
vn 0.8026 -0.1256 -0.5831
vn 0.4089 0.6617 0.6284
vn -0.4713 0.6617 0.5831
vn -0.7002 0.6617 -0.2680
vn 0.0385 0.6617 -0.7488
vn 0.7240 0.6617 -0.1947
vn 0.2680 0.9435 -0.1947
vn 0.4911 0.7947 -0.3568
vn 0.4089 0.6617 -0.6284
vn -0.1024 0.9435 -0.3151
vn -0.1876 0.7947 -0.5773
vn -0.4713 0.6617 -0.5831
vn -0.3313 0.9435 -0.0000
vn -0.6071 0.7947 -0.0000
vn -0.7002 0.6617 0.2680
vn -0.1024 0.9435 0.3151
vn -0.1876 0.7947 0.5773
vn 0.0385 0.6617 0.7488
vn 0.2680 0.9435 0.1947
vn 0.4911 0.7947 0.3568
vn 0.7240 0.6617 0.1947
vn 0.8897 0.3304 -0.3151
vn 0.7947 0.1876 -0.5773
vn 0.5746 0.3304 -0.7488
vn -0.0247 0.3304 -0.9435
vn -0.3035 0.1876 -0.9342
vn -0.5346 0.3304 -0.7779
vn -0.9050 0.3304 -0.2680
vn -0.9822 0.1876 -0.0000
vn -0.9050 0.3304 0.2680
vn -0.5346 0.3304 0.7779
vn -0.3035 0.1876 0.9342
vn -0.0247 0.3304 0.9435
vn 0.5746 0.3304 0.7488
vn 0.7947 0.1876 0.5773
vn 0.8897 0.3304 0.3151
vn 0.3066 0.1256 -0.9435
vn 0.3035 -0.1876 -0.9342
vn 0.0247 -0.3304 -0.9435
vn -0.8026 0.1256 -0.5831
vn -0.7947 -0.1876 -0.5773
vn -0.8897 -0.3304 -0.3151
vn -0.8026 0.1256 0.5831
vn -0.7947 -0.1876 0.5773
vn -0.5746 -0.3304 0.7488
vn 0.3066 0.1256 0.9435
vn 0.3035 -0.1876 0.9342
vn 0.5346 -0.3304 0.7779
vn 0.9921 0.1256 -0.0000
vn 0.9822 -0.1876 -0.0000
vn 0.9050 -0.3304 -0.2680
vn 0.4713 -0.6617 -0.5831
vn 0.1876 -0.7947 -0.5773
vn -0.0385 -0.6617 -0.7488
vn -0.4089 -0.6617 -0.6284
vn -0.4911 -0.7947 -0.3568
vn -0.7240 -0.6617 -0.1947
vn -0.7240 -0.6617 0.1947
vn -0.4911 -0.7947 0.3568
vn -0.4089 -0.6617 0.6284
vn 0.7002 -0.6617 -0.2680
vn 0.6071 -0.7947 -0.0000
vn 0.3313 -0.9435 -0.0000
vn -0.0385 -0.6617 0.7488
vn 0.1876 -0.7947 0.5773
vn 0.4713 -0.6617 0.5831
vt 0.644146 0.500000
vt 0.707081 0.397724
vt 0.707955 0.599121
vt 0.782695 0.319553
vt 0.705655 0.196332
vt 0.619206 0.668492
vt 0.568481 0.501853
vt 0.617501 0.332832
vt 0.858861 0.194358
vt 0.783673 0.674446
vt 0.783187 0.496999
vt 0.858861 0.597179
vt 0.570569 0.827904
vt 0.709357 0.800515
vt 0.858861 1.000000
vt 0.492812 0.503152
vt 0.519137 0.670639
vt 0.429431 0.604231
vt 0.566432 0.175803
vt 0.518084 0.334964
vt 0.429431 0.201411
vt 0.858861 0.395769
vt 0.858861 0.798589
vt 0.429431 0.805642
vt 0.429431 0.402821
vt 0.429432 0.000000
vt 0.063381 0.496848
vt 0.089707 0.329361
vt 0.139051 0.498147
vt 0.137002 0.824197
vt 0.088653 0.665036
vt 0.188071 0.667168
vt 0.353265 0.680447
vt 0.276225 0.803668
vt 0.277650 0.602276
vt 0.354243 0.325554
vt 0.353757 0.503001
vt 0.278524 0.400879
vt 0.141139 0.172096
vt 0.279926 0.199485
vt 0.189775 0.331508
vt 0.214715 0.500000
vt 0.000000 1.000000
vt 0.000000 0.798589
vt 0.000000 0.597179
vt 0.000000 0.395769
vt 0.000000 0.194358
vt 1.000000 0.172096
s 0
g Icosphere_Material.001
usemtl Material.001
f 9/5/7 22/6/7 21/7/7
f 10/8/8 22/6/8 24/9/8
f 9/5/9 21/7/9 26/10/9
f 9/5/10 26/10/10 28/11/10
f 9/5/11 28/11/11 25/12/11
f 10/8/12 24/9/12 31/13/12
f 11/14/13 23/15/13 33/16/13
f 12/17/14 27/18/14 35/19/14
f 13/20/15 29/21/15 37/22/15
f 14/23/16 30/24/16 39/25/16
f 10/8/17 31/13/17 34/26/17
f 11/14/18 33/16/18 36/27/18
f 12/17/19 35/19/19 38/28/19
f 13/20/20 37/22/20 40/29/20
f 14/23/21 39/25/21 32/30/21
f 15/31/22 41/32/22 46/33/22
f 16/34/23 42/35/23 48/36/23
f 17/37/24 43/38/24 49/39/24
f 18/40/25 44/41/25 50/42/25
f 19/43/26 45/44/26 47/45/26
f 47/45/27 50/42/27 20/46/27
f 47/45/28 45/44/28 50/42/28
f 45/44/29 18/40/29 50/42/29
f 50/42/30 49/39/30 20/46/30
f 50/42/31 44/41/31 49/39/31
f 44/41/32 17/37/32 49/39/32
f 49/39/33 48/36/33 20/46/33
f 49/39/34 43/38/34 48/36/34
f 43/38/35 16/34/35 48/36/35
f 48/36/36 46/33/36 20/46/36
f 48/36/37 42/35/37 46/33/37
f 42/35/38 15/31/38 46/33/38
f 46/33/39 47/45/39 20/46/39
f 46/33/40 41/32/40 47/45/40
f 41/32/41 19/43/41 47/45/41
f 32/30/42 45/44/42 19/43/42
f 32/30/43 39/25/43 45/44/43
f 39/25/44 18/40/44 45/44/44
f 40/29/45 44/41/45 18/40/45
f 40/29/46 37/22/46 44/41/46
f 37/22/47 17/37/47 44/41/47
f 38/28/48 43/38/48 17/37/48
f 38/28/49 35/47/49 43/38/49
f 35/47/50 16/34/50 43/38/50
f 36/48/51 42/35/51 16/34/51
f 36/48/52 33/49/52 42/35/52
f 33/49/53 15/31/53 42/35/53
f 34/50/54 41/32/54 15/31/54
f 34/50/55 31/51/55 41/32/55
f 31/51/56 19/43/56 41/32/56
f 39/25/57 40/29/57 18/40/57
f 39/25/58 30/24/58 40/29/58
f 30/24/59 13/20/59 40/29/59
f 37/22/60 38/28/60 17/37/60
f 37/22/61 29/21/61 38/28/61
f 29/21/62 12/17/62 38/28/62
f 35/47/63 36/48/63 16/34/63
f 35/19/64 27/18/64 36/27/64
f 27/18/65 11/14/65 36/27/65
f 33/49/66 34/50/66 15/31/66
f 33/16/67 23/15/67 34/26/67
f 23/15/68 10/8/68 34/26/68
f 31/13/69 32/30/69 19/52/69
f 31/13/70 24/9/70 32/30/70
f 24/9/71 14/23/71 32/30/71
f 25/12/72 30/24/72 14/23/72
f 25/12/73 28/11/73 30/24/73
f 28/11/74 13/20/74 30/24/74
f 28/11/75 29/21/75 13/20/75
f 28/11/76 26/10/76 29/21/76
f 26/10/77 12/17/77 29/21/77
f 26/10/78 27/18/78 12/17/78
f 26/10/79 21/7/79 27/18/79
f 21/7/80 11/14/80 27/18/80
f 24/9/81 25/12/81 14/23/81
f 24/9/82 22/6/82 25/12/82
f 22/6/83 9/5/83 25/12/83
f 21/7/84 23/15/84 11/14/84
f 21/7/85 22/6/85 23/15/85
f 22/6/86 10/8/86 23/15/86
